<svg width="26" height="28" viewBox="0 0 26 28" fill="none" xmlns="http://www.w3.org/2000/svg">
<path d="M21.5202 6.25839L22.3961 5.38252L23.3971 6.38356L25.1489 4.63175L21.3951 0.87793L19.6433 2.62973L20.6443 3.63072L19.5182 4.75686C13.512 1.12815 5.75411 3.00506 2.25056 9.01118C-1.25299 15.0173 0.623865 22.5249 6.50488 26.1537C12.3859 29.7824 20.1438 27.9055 23.6474 21.8994C26.7755 16.7691 25.8997 10.2625 21.5202 6.25839ZM13.0115 24.1516C8.13152 24.1516 4.25258 20.2727 4.25258 15.3927C4.25258 10.5128 8.13152 6.63378 13.0115 6.63378V15.3927H21.7704C21.7705 20.2727 17.8915 24.1516 13.0115 24.1516Z" fill="#27AE60"/>
</svg>
