<svg width="24" height="30" viewBox="0 0 24 30" fill="none" xmlns="http://www.w3.org/2000/svg">
<path d="M18.6336 9.3641C13.2788 6.10623 15.7899 1.50797 15.8977 1.31684C16.054 1.04484 16.0535 0.710215 15.8963 0.438691C15.7392 0.167168 15.4493 0 15.1356 0C12.3792 0 10.2207 0.783164 8.72018 2.32787C6.15618 4.96717 6.27512 9.075 6.32592 10.8291C6.33161 11.0235 6.33641 11.1913 6.33641 11.3161C6.33641 12.6185 6.54536 13.8209 6.72975 14.8818C6.84858 15.5654 6.95118 16.1558 6.96946 16.6199C6.98897 17.1169 6.89821 17.2307 6.8944 17.2353C6.88145 17.2507 6.77358 17.308 6.48214 17.308C6.14967 17.308 5.90464 17.1994 5.68743 16.9559C4.83923 16.0048 4.78057 13.4078 4.94276 11.995C4.97177 11.7458 4.89296 11.4962 4.72614 11.3089C4.55938 11.1217 4.32055 11.0146 4.06983 11.0146C1.7879 11.0146 0.0827026 14.7463 0.0827026 18.0829C0.0827026 19.6513 0.39823 21.1878 1.02044 22.6496C1.62196 24.0629 2.47966 25.3382 3.56997 26.4404C5.84042 28.7358 8.83415 30 11.9996 30C15.1778 30 18.1707 28.7537 20.4272 26.4909C22.6777 24.2338 23.9172 21.2478 23.9172 18.0827C23.9172 14.0444 20.7574 10.6562 18.6336 9.3641Z" fill="#F2994A"/>
</svg>
