<svg width="30" height="30" viewBox="0 0 30 30" fill="none" xmlns="http://www.w3.org/2000/svg">
<path d="M19.46 28.7076C19.7257 28.7257 19.9923 28.6912 20.2446 28.6062C20.4969 28.5212 20.73 28.3873 20.9306 28.2122C21.1312 28.0371 21.2953 27.8242 21.4136 27.5856C21.5319 27.3471 21.602 27.0876 21.62 26.8219L21.709 25.5088L17.7643 23.7451L17.5743 26.5479C17.5386 27.0842 17.7171 27.6128 18.0706 28.0177C18.4241 28.4225 18.9238 28.6707 19.46 28.7076Z" fill="#F23D5B"/>
<path d="M18.0374 20.6455L22.2154 22.6119L23.5681 17.7689C24.5362 13.3133 23.9376 9.98416 21.9253 8.6341C20.7451 7.84209 19.4677 8.00345 18.7253 8.51486C18.717 8.52072 18.7083 8.52605 18.6994 8.53109C18.6936 8.53437 18.0272 8.92443 17.4427 9.7884C16.6634 10.9398 16.3877 12.3499 16.6224 13.9801L18.0374 20.6455Z" fill="#F23D5B"/>
<path d="M12.2173 16.9514L8.26917 18.708L8.35547 20.0214C8.37298 20.2871 8.44264 20.5468 8.56049 20.7855C8.67834 21.0243 8.84206 21.2375 9.0423 21.413C9.24255 21.5885 9.4754 21.7228 9.72756 21.8083C9.97972 21.8938 10.2462 21.9288 10.5119 21.9113C10.7776 21.8938 11.0373 21.8241 11.276 21.7063C11.5148 21.5884 11.728 21.4247 11.9035 21.2245C12.079 21.0242 12.2133 20.7914 12.2988 20.5392C12.3843 20.2871 12.4193 20.0205 12.4018 19.7548L12.2173 16.9514Z" fill="#F23D5B"/>
<path d="M7.76828 15.8103L11.95 13.8516L13.3777 7.1886C13.6153 5.55893 13.3419 4.14829 12.5651 2.99545C11.9822 2.13038 11.3164 1.73903 11.3097 1.73522C11.3015 1.73047 11.2926 1.72479 11.2848 1.71946C10.5435 1.20676 9.2664 1.04293 8.08462 1.83272C6.06976 3.17915 5.46502 6.50721 6.42478 10.9646L7.76828 15.8103Z" fill="#F23D5B"/>
</svg>
