<svg width="40" height="40" viewBox="0 0 40 40" fill="none" xmlns="http://www.w3.org/2000/svg">
<path d="M39.9998 13.6356C39.9958 14.4165 39.9131 15.2024 39.7513 15.9833C39.4968 17.2199 39.0455 18.4478 38.3964 19.6364C36.6984 22.7464 34.0647 25.2296 31.5177 27.6314C31.0685 28.054 30.6452 28.454 30.2234 28.8591C28.6432 30.3797 27.0429 31.8456 25.4957 33.2628C23.9594 34.6706 22.3707 36.1255 20.8118 37.6256L20 38.406L19.1886 37.6256C17.6297 36.1264 16.041 34.6706 14.5047 33.2635C12.9575 31.8456 11.3572 30.3797 9.77696 28.8591C9.35521 28.454 8.93193 28.054 8.48271 27.6314C5.93571 25.2296 3.30204 22.7464 1.60404 19.6364C1.05106 18.624 0.640906 17.5822 0.374793 16.5313C0.176123 15.7518 0.0567991 14.9669 0.0162107 14.1835C-0.107386 11.8309 0.478552 9.49573 1.77036 7.38131C4.62528 2.71093 8.60295 1.70524 11.4374 1.68323C13.8572 1.66457 16.2504 2.36113 18.3606 3.6946L20 4.72353L21.6428 3.69307C23.7235 2.37733 26.0831 1.68323 28.4708 1.68323H28.563C31.3975 1.70524 35.3751 2.71093 38.23 7.38131C39.4211 9.33153 40.0123 11.4695 39.9998 13.6356Z" fill="#F23D5B"/>
<path d="M39.9998 13.6356C39.9958 14.4166 39.9131 15.2024 39.7514 15.9834H22.5925L20.0001 23.872L18.2984 29.0509L12.1567 12.012L9.95338 16.5313H0.374817C0.176148 15.7519 0.0568237 14.967 0.0162354 14.1836H8.48975L12.4818 5.99927L18.1959 21.8545L20.0001 16.3637L20.897 13.6356H39.9998Z" fill="white"/>
<path d="M39.9997 13.6357C39.9958 14.4167 39.913 15.2025 39.7513 15.9834C39.4968 17.22 39.0454 18.448 38.3963 19.6365C36.6983 22.7465 34.0647 25.2297 31.5177 27.6316C31.0684 28.0541 30.6452 28.4541 30.2234 28.8592C28.6432 30.3798 27.0429 31.8457 25.4956 33.263C23.9594 34.6707 22.3706 36.1256 20.8118 37.6257L20 38.4061V4.72365L21.6428 3.6932C23.7235 2.37745 26.0831 1.68335 28.4708 1.68335H28.5629C31.3974 1.70537 35.3751 2.71105 38.23 7.38143C39.4211 9.33165 40.0122 11.4696 39.9997 13.6357Z" fill="#F23D5B"/>
<path d="M39.9997 13.6357C39.9957 14.4167 39.913 15.2025 39.7513 15.9835H22.5925L20 23.8721V16.3638L20.8969 13.6357H39.9997Z" fill="white"/>
</svg>
