<svg width="27" height="40" viewBox="0 0 27 40" fill="none" xmlns="http://www.w3.org/2000/svg">
<path d="M25.7979 16.4453C25.0225 16.9314 21.2571 18.9497 18.8776 18.9497C18.4478 18.9497 18.0629 18.8846 17.7499 18.7316C17.1763 18.4527 16.8012 17.934 16.7238 17.3079C16.5624 16.0156 16.2898 14.9436 15.9168 14.1102C16.0978 16.3694 16.3814 20.2236 16.4261 22.4794C16.4284 22.5782 16.5832 23.0339 16.5832 23.0339L17.0794 23.915C17.4883 24.642 17.9561 25.3299 18.4523 26.0568C18.7447 26.4867 19.0357 26.9141 19.3149 27.3503C19.9158 28.2877 20.69 29.7265 20.496 31.4118C20.4338 31.937 20.4131 32.4674 20.389 32.996C20.3781 33.2966 20.365 33.596 20.3465 33.8923L20.0848 38.1707C20.0215 39.2047 19.1763 40 18.1708 40C18.1306 40 18.0913 39.999 18.0509 39.9968C16.9943 39.9307 16.1883 39.004 16.2539 37.9287L16.5167 33.6503C16.5331 33.3779 16.545 33.1023 16.5571 32.8267C16.5843 32.1995 16.6127 31.5702 16.6857 30.9518C16.7217 30.6392 16.5255 30.1433 16.1013 29.4814C15.8396 29.0756 15.569 28.6763 15.2976 28.277C14.7775 27.5142 14.2409 26.7254 13.7513 25.8551L13.193 24.8633C12.9257 24.809 12.6499 24.7657 12.3652 24.7657C12.3183 24.7657 12.2594 24.7885 12.2093 24.795C12.2235 26.6505 12.2375 28.5069 12.2299 30.3635C12.2246 31.6298 11.6236 32.525 11.1842 33.1792C11.0992 33.3073 11.013 33.4342 10.9345 33.5656L7.61177 39.0702C7.24972 39.6702 6.62052 40.0001 5.97492 40.0001C5.63252 40.0001 5.28677 39.9079 4.97272 39.7115C4.07092 39.1483 3.78732 37.9461 4.34242 37.0281L7.66172 31.53C7.77292 31.3444 7.89402 31.1622 8.01507 30.982C8.15672 30.7683 8.37382 30.4471 8.39442 30.3331C8.40207 28.2845 8.38697 26.2229 8.37047 24.1612C8.37047 24.1612 8.75112 13.4885 8.79242 12.6942C8.04112 12.984 7.29187 13.3886 6.62022 13.9952C4.93977 15.5089 4.00627 17.9264 3.84597 21.1784C3.80562 21.9824 3.15137 22.6074 2.36837 22.6074C2.34332 22.6074 2.31822 22.6074 2.29317 22.6063C1.47637 22.563 0.84827 21.8577 0.88862 21.0276C1.09147 16.9369 2.35862 13.813 4.65737 11.7416C6.37277 10.1954 8.62357 9.38915 10.8581 9.01805C11.3988 8.9279 11.9486 8.89545 12.4959 8.91175C13.7412 8.94855 15.0467 9.16025 16.1251 9.83075C17.8339 10.8942 18.9669 12.9232 19.4991 15.8692C20.6517 15.6131 22.7706 14.808 24.2427 13.8846C24.9353 13.4474 25.8479 13.6676 26.2787 14.3751C26.7083 15.0825 26.4936 16.0091 25.7979 16.4453ZM12.3127 8.5015C14.6223 8.5015 16.4915 6.59825 16.4915 4.24915C16.4915 1.9021 14.6224 0 12.3127 0C10.004 0 8.13392 1.9021 8.13392 4.24915C8.13392 6.59825 10.0041 8.5015 12.3127 8.5015Z" fill="#2063F0"/>
</svg>
